HIERARCHY
ROOT Hips
{
  OFFSET 279.157 85.6768 304.565
  CHANNELS 6 Xposition Yposition Zposition Zrotation Xrotation Yrotation
  JOINT LeftUpLeg
  {
    OFFSET 8.64259 1.95398 -2.38835
    CHANNELS 3 Zrotation Xrotation Yrotation
    JOINT LeftLeg
    {
      OFFSET 43.7702 0 0
      CHANNELS 3 Zrotation Xrotation Yrotation
      JOINT LeftFoot
      {
        OFFSET 40.6238 0 0
        CHANNELS 3 Zrotation Xrotation Yrotation
        JOINT LeftToeBase
        {
          OFFSET 12.7242 0 0
          CHANNELS 3 Zrotation Xrotation Yrotation
          End Site
          {
            OFFSET 0 0 0
          }
        }
      }
    }
  }
  JOINT RightUpLeg
  {
    OFFSET -8.2249 1.95398 -2.59336
    CHANNELS 3 Zrotation Xrotation Yrotation
    JOINT RightLeg
    {
      OFFSET 43.5653 0 0
      CHANNELS 3 Zrotation Xrotation Yrotation
      JOINT RightFoot
      {
        OFFSET 40.6238 0 0
        CHANNELS 3 Zrotation Xrotation Yrotation
        JOINT RightToeBase
        {
          OFFSET 12.7242 0 0
          CHANNELS 3 Zrotation Xrotation Yrotation
          End Site
          {
            OFFSET 0 0 0
          }
        }
      }
    }
  }
  JOINT Spine
  {
    OFFSET 0.165834 0.87714 6.61349
    CHANNELS 3 Zrotation Xrotation Yrotation
    JOINT Spine1
    {
      OFFSET 7.38963 1.71661e-005 0
      CHANNELS 3 Zrotation Xrotation Yrotation
      JOINT Spine2
      {
        OFFSET 11.9445 1.14441e-005 0
        CHANNELS 3 Zrotation Xrotation Yrotation
        JOINT Spine3
        {
          OFFSET 14.7254 4.19617e-005 0
          CHANNELS 3 Zrotation Xrotation Yrotation
          JOINT Spine4
          {
            OFFSET 10.9679 0 0
            CHANNELS 3 Zrotation Xrotation Yrotation
            JOINT RightShoulder
            {
              OFFSET 2.46616 -1.6653 3.69651
              CHANNELS 3 Zrotation Xrotation Yrotation
              JOINT RightArm
              {
                OFFSET 13.0012 0 0
                CHANNELS 3 Zrotation Xrotation Yrotation
                JOINT RightForeArm
                {
                  OFFSET 28.7848 1.52588e-005 0
                  CHANNELS 3 Zrotation Xrotation Yrotation
                  JOINT RightHand
                  {
                    OFFSET 26.5688 1.52588e-005 0
                    CHANNELS 3 Zrotation Xrotation Yrotation
                    End Site
                    {
                      OFFSET 0 0 0
                    }
                  }
                }
              }
            }
            JOINT LeftShoulder
            {
              OFFSET 2.38034 -1.29275 -3.7523
              CHANNELS 3 Zrotation Xrotation Yrotation
              JOINT LeftArm
              {
                OFFSET 16.3182 6.10351e-005 0
                CHANNELS 3 Zrotation Xrotation Yrotation
                JOINT LeftForeArm
                {
                  OFFSET 27.0901 0 0
                  CHANNELS 3 Zrotation Xrotation Yrotation
                  JOINT LeftHand
                  {
                    OFFSET 24.5451 1.52588e-005 0
                    CHANNELS 3 Zrotation Xrotation Yrotation
                    End Site
                    {
                      OFFSET 0 0 0
                    }
                  }
                }
              }
            }
            JOINT Neck
            {
              OFFSET 5.0226 -0.0266342 0
              CHANNELS 3 Zrotation Xrotation Yrotation
              JOINT Head
              {
                OFFSET 6.69364 2.86102e-005 0
                CHANNELS 3 Zrotation Xrotation Yrotation
                End Site
                {
                  OFFSET 0 0 0
                }
              }
            }
          }
        }
      }
    }
  }
}
MOTION
Frames:	15
Frame Time:	0.0416667
22.7783 98.4871 -73.434 78.2341 -88.5529 84.7821 -177.166 25.2123 86.7883 -12.134 10.3647 -1.92166 61.6516 2.95995 0.708208 18.304 -6.01414 0.873418 170.193 -18.6609 83.074 -35.707 -26.0023 -5.04242 59.7892 0.51726 -0.118839 25.668 -0.171351 7.9095 2.69904 7.44698 -90.2622 12.0112 5.24269 -1.09191 0.350206 5.18954 -1.32219 -22.2698 5.32772 0.538781 -2.25712 5.32772 0.538775 90.5605 -21.5803 -109.171 30.4587 -1.90083 -14.187 -31.4334 0.594322 -99.736 -35.427 3.3968 -22.2536 -87.1487 -37.5446 80.6478 -32.728 25.2 49.2723 51.1821 -14.5048 -88.7189 9.09692 -2.16314 -24.7908 25.7427 -16.5946 -12.1175 -15.027 -12.093 3.86251 
24.507 98.0014 -65.3597 125.385 -88.4132 134.91 -176.16 26.3428 89.1862 -16.7743 8.74505 -2.29354 60.4886 1.05032 1.0637 13.9639 -9.07856 2.29564 171.213 -18.7509 85.0677 -41.4364 -17.3697 -3.89227 61.9331 -0.774341 0.86599 26.7129 -0.305755 6.9018 2.31808 7.46183 -91.0694 11.9987 4.10449 -2.57928 0.331351 3.98704 -2.75754 -22.2497 4.68955 -1.22456 -2.23703 4.68956 -1.22458 89.8571 -17.3956 -113.07 34.5432 -8.07244 -11.473 -28.3629 0.722263 -95.3712 -34.3718 3.79764 -23.0827 -85.9373 -46.6387 84.3173 -27.4083 20.8746 46.3136 53.382 -12.8436 -89.9922 9.65371 -2.12317 -23.4901 26.5838 -11.3501 -4.66373 -17.0015 -9.26212 0.40352 
26.1391 96.961 -57.2912 139.772 -87.8099 150.388 -173.695 28.2048 89.5345 -27.3756 7.78687 -3.97505 58.5097 -1.13316 5.68624 11.417 -6.57287 -7.13206 171.788 -15.2375 85.8656 -51.9975 -9.54691 -3.69801 64.8203 -2.92214 -1.61994 23.1373 0.709733 6.76697 2.3626 7.49964 -90.7681 11.9164 4.33623 -1.99904 0.25081 4.24407 -2.18818 -22.3404 4.73615 -0.600879 -2.32773 4.73615 -0.600875 88.7179 -25.9339 -111.051 34.1483 -12.1475 -8.70923 -29.232 0.750149 -91.3736 -32.2415 3.82847 -24.723 -87.3425 -43.0028 81.4345 -27.0816 15.273 40.6912 55.043 -10.3541 -90.2391 12.3129 -2.42685 -22.3404 25.7369 -13.2154 -12.2277 -15.6846 -8.85663 4.51427 
27.5208 95.6884 -49.7291 133.524 -87.1709 142.588 -170.732 28.7872 86.6125 -41.0866 9.02 -5.537 69.8223 7.16185 7.27064 6.49848 -9.52988 -6.02883 172.623 -7.49806 85.1575 -66.2726 -2.07977 -4.28576 67.5058 -5.26758 -4.49069 15.6271 2.39154 8.61161 1.91207 7.58847 -90.4851 11.723 3.57537 -1.34365 0.0561648 3.51277 -1.49988 -22.5183 3.81368 -0.205532 -2.50563 3.81367 -0.205533 87.623 -28.8453 -111.97 35.637 -14.198 -4.5932 -33.1558 -3.92758 -87.3879 -31.2458 2.99194 -23.7375 -88.0958 -46.6155 80.9414 -22.3641 8.67119 33.6054 57.6475 -9.69887 -92.2853 12.3208 -2.35672 -21.8057 24.3745 -11.3858 -14.5975 -14.0797 -6.41345 5.26153 
28.7308 94.0621 -42.9016 128.915 -85.0939 132.484 -169.076 23.8842 81.028 -45.5963 9.05278 -6.26556 74.9975 11.7503 6.27062 11.7791 -7.69907 -4.07445 173.961 0.798088 82.4316 -81.867 2.9649 -5.44333 71.3696 -8.20502 -5.95423 13.3929 3.18062 7.96544 1.25417 8.0251 -89.7524 10.8252 2.61171 0.253949 -0.843036 2.62035 0.138664 -23.3968 2.41455 1.02756 -3.38417 2.41455 1.02756 86.4099 -32.2113 -112.764 36.4718 -13.8522 -0.469056 -32.276 -5.85078 -81.9146 -32.8995 2.55974 -21.1914 -88.6896 -50.5502 80.7922 -17.2885 3.33147 20.6573 56.8407 -9.28301 -94.2234 9.37228 -1.94166 -22.2695 26.7323 -9.11842 -15.137 -13.9032 -3.47685 3.61463 
30.3002 92.5369 -36.2346 122.403 -83.8082 122.22 -168.246 18.6828 77.5859 -47.4041 10.8377 -7.54788 79.0457 16.0956 7.96759 15.1751 -5.23126 -5.85523 178.683 10.6499 81.4289 -94.626 1.61591 -5.93819 73.1059 -10.2655 -6.82025 14.5707 2.86307 7.92014 0.672275 8.24736 -89.1624 10.3658 1.72283 1.51382 -1.30485 1.78778 1.43653 -23.8379 1.18831 1.96153 -3.82528 1.18831 1.96153 86.005 -33.2721 -113.042 40.0987 -10.2088 6.12192 -33.1467 -7.08284 -80.9175 -31.3668 2.58571 -22.6891 -88.6271 -50.7889 80.9333 -15.2779 0.539162 5.61831 53.222 -8.8105 -95.3522 9.09188 -1.93355 -22.5776 28.9951 -6.67677 -15.9459 -14.6511 -0.484689 3.66385 
32.0682 91.7703 -29.5815 109.208 -84.1081 109.654 -168.123 14.924 78.1276 -48.2405 10.5615 -7.81245 85.9978 20.2245 4.80589 12.3845 -8.11321 -2.2105 -174.592 21.6832 83.9313 -101.994 -0.995496 -5.72362 73.0966 -10.5856 -7.36373 14.823 2.46386 9.19931 0.288919 8.16706 -89.1257 10.5307 0.977123 1.65126 -1.1409 1.04884 1.60666 -23.6686 0.435775 1.86851 -3.65596 0.435778 1.86851 87.377 -32.0871 -110.991 44.899 -8.70343 13.9672 -31.3572 -5.45246 -80.9422 -31.1028 2.90099 -23.3759 -88.6428 -49.7792 80.7174 -14.2134 -3.68682 -8.57253 52.2488 -9.1481 -97.095 7.38386 -1.848 -24.6954 28.2469 -2.81427 -15.4351 -13.1265 2.90437 4.1695 
33.9547 91.5765 -22.6703 90.3502 -81.3446 93.8041 -168.618 10.6335 80.9693 -46.4983 11.7985 -6.765 88.9518 22.1033 3.41773 15.9494 -6.30988 -1.8779 -172.477 31.6755 87.9865 -102.822 1.38962 -5.21179 74.7902 -11.5373 -7.38111 16.5039 2.06982 8.95396 -0.430925 8.00198 -89.3977 10.8707 -0.579497 1.25416 -0.800843 -0.523741 1.27844 -23.3328 -0.929593 1.02206 -3.32014 -0.929593 1.02206 88.978 -31.4824 -108.183 47.2851 -9.19833 21.2478 -31.6231 -3.88619 -81.6406 -29.1036 3.0505 -25.2074 -88.3634 -47.697 80.7414 -11.9836 -6.81643 -20.6979 49.5507 -9.30809 -98.3497 9.28768 -2.2685 -25.5067 27.6563 0.602866 -16.2089 -14.2479 6.18666 5.79562 
36.4998 92.6212 -15.4589 87.6902 -75.8621 93.7352 -170.076 5.01483 84.0833 -43.4198 15.1465 -4.77208 85.4741 20.3075 4.50026 18.9507 -4.98737 -0.962014 -173.573 37.1896 90.4821 -97.4064 4.83496 -5.08982 78.3502 -12.319 -5.88936 17.2973 2.0849 8.01163 -1.42254 8.02186 -89.7465 10.8407 -2.71531 0.758366 -0.827676 -2.6793 0.877209 -23.3856 -2.81759 -0.0934021 -3.37295 -2.81758 -0.0933971 89.2117 -31.0848 -107.886 47.1072 -8.25904 29.1809 -34.7542 -4.85127 -83.6871 -30.054 2.93035 -25.0981 -88.3918 -42.6498 79.6398 -10.2254 -9.30589 -26.9509 44.878 -9.63463 -99.6927 9.03136 -2.23054 -25.41 26.7261 4.5799 -16.6234 -14.3509 9.86199 7.12868 
39.6312 94.4282 -7.63058 87.9542 -70.3244 96.2879 -171.406 -1.53892 87.0211 -38.343 18.5237 -2.27178 75.833 14.0344 6.85425 26.67 0.0679407 -4.86067 -174.873 38.6913 92.3066 -87.4386 6.296 -5.2144 80.0157 -12.3826 -4.98848 17.4383 2.0788 7.86891 -2.33687 8.23995 -90.2787 10.3979 -4.78301 -0.134821 -1.26419 -4.7843 0.0763045 -23.8645 -4.5209 -1.56904 -3.85183 -4.5209 -1.56904 90.63 -28.439 -106.091 46.7842 -7.38672 34.8336 -36.6994 -3.70333 -82.6878 -29.2235 3.07232 -26.8342 -87.9846 -36.6369 78.9406 -12.0439 -11.8118 -30.4964 46.1049 -10.2442 -101.566 13.8621 -2.26681 -19.5413 28.3796 8.19489 -14.8131 -15.2075 12.5818 8.76069 
43.236 96.5772 0.727136 87.2273 -66.7048 98.4486 -171.764 -8.15789 91.4043 -30.3837 22.9203 0.259633 63.674 4.76641 6.6475 34.3044 4.14648 -7.71835 -175.872 38.2313 94.1795 -73.8428 5.69811 -5.06381 78.8721 -10.5267 -3.65251 15.7732 2.85731 6.62852 -2.94002 8.43335 -90.9451 9.97722 -6.28879 -1.35864 -1.67885 -6.34247 -1.07949 -24.3103 -5.58901 -3.19099 -4.29764 -5.58901 -3.19099 91.4958 -26.2099 -105.149 45.11 -6.35753 39.4232 -38.1766 -3.94147 -83.1617 -29.4435 3.30328 -28.2358 -87.5563 -32.906 78.7655 -12.0062 -12.5412 -31.9277 39.788 -9.99224 -102.292 11.9167 -2.65601 -24.5959 31.2081 11.3785 -11.456 -17.7155 14.2123 10.0278 
47.0244 98.0262 9.32661 83.2488 -65.672 97.5384 -171.325 -12.4063 94.4876 -24.7352 25.1198 1.99004 55.0892 -2.21619 4.13575 24.4169 0.0593665 -9.21392 -175.506 37.4392 95.3872 -58.5303 -0.145911 -5.04105 76.8728 -9.57107 -2.88979 19.5663 1.84412 6.17723 -3.07496 8.35801 -91.6327 10.0823 -6.87103 -2.66696 -1.57254 -6.98169 -2.36078 -24.1957 -5.75181 -4.61275 -4.18308 -5.75181 -4.61275 92.0826 -23.414 -104.978 44.351 -4.76831 44.3689 -38.1575 -4.17081 -83.2254 -30.6854 3.71186 -28.964 -88.3866 -30.5266 76.5664 -8.41574 -13.1909 -31.1659 36.0892 -10.1955 -103.061 12.1518 -2.72942 -24.8594 31.7962 14.1561 -7.19023 -19.6223 14.9512 10.3297 
50.5761 98.3764 17.7823 77.2773 -65.2941 92.7383 -172.277 -13.5778 94.3049 -24.911 21.6466 3.40707 54.2882 -3.4444 2.9587 13.9094 -6.32465 -4.665 -174.936 37.1663 94.5217 -43.8054 -9.58248 -5.18633 73.2739 -7.98894 -1.64058 23.0561 1.06781 4.98307 -3.00641 8.01991 -91.9777 10.7336 -6.89775 -3.29758 -0.92246 -7.0361 -2.98975 -23.5287 -5.5885 -5.2207 -3.51604 -5.58849 -5.2207 93.0693 -20.9941 -103.686 46.5533 -5.43199 48.4718 -37.4568 -3.03466 -82.7954 -30.7393 4.05221 -29.8538 -86.7953 -26.4728 78.4806 -9.69604 -9.28424 -34.324 36.8609 -10.5676 -102.094 12.4096 -2.77107 -24.8195 30.0457 15.5146 -4.38533 -20.1776 14.985 10.5489 
53.9202 98.1069 26.2131 76.5193 -64.0581 91.3985 -172.477 -15.4888 93.4722 -28.7137 15.0035 3.87603 58.6959 -0.660857 6.14467 15.3869 -4.40111 -7.84374 -174.983 33.9362 92.9056 -29.5886 -15.9741 -4.72442 69.0249 -6.19955 0.0933781 27.1598 0.0681228 3.38901 -3.04413 7.91797 -92.0712 10.9313 -7.0182 -3.45719 -0.724387 -7.16346 -3.14388 -23.3301 -5.65559 -5.40899 -3.31742 -5.65559 -5.40898 93.1416 -19.6652 -104.058 47.7234 -4.43385 50.6127 -38.3059 -2.26882 -83.1235 -31.661 4.16659 -29.6705 -86.1496 -25.2535 79.4664 -8.43707 -6.21614 -36.3844 36.2731 -10.6721 -101.061 12.471 -2.66296 -23.9298 28.5282 16.1685 -3.35367 -19.5713 15.1812 10.9731 
57.1908 97.4099 34.2696 78.201 -63.4594 90.8877 -172.836 -17.8864 91.4195 -32.9395 9.24994 3.28201 62.6818 2.49198 6.31096 15.774 -4.81758 -6.17441 -175.009 31.0875 90.9527 -21.679 -20.0654 -4.87294 68.61 -6.61797 -0.0773416 25.3348 0.714991 2.89481 -3.01194 7.81731 -91.7557 11.1587 -6.81005 -2.83014 -0.496739 -6.92794 -2.52655 -23.1131 -5.64484 -4.74949 -3.1005 -5.64484 -4.74949 92.5655 -21.5774 -104.62 46.5936 -4.5616 49.9702 -43.1703 -5.40677 -83.6073 -35.1749 4.18044 -28.937 -86.069 -25.1395 79.5988 -6.67387 -0.92285 -35.4274 34.6946 -10.6113 -99.0642 12.7003 -2.77728 -24.4749 26.5296 15.8613 -4.56514 -19.1308 15.3095 11.2718 
